<mxfile host="app.diagrams.net" modified="2021-10-07T16:53:35.701Z" agent="5.0 (Windows NT 10.0; Win64; x64) AppleWebKit/537.36 (KHTML, like Gecko) Chrome/94.0.4606.71 Safari/537.36" etag="e7f13ybbdva-g3_9G0vS" version="15.4.3" type="github">
  <diagram id="C5RBs43oDa-KdzZeNtuy" name="Page-1">
    <mxGraphModel dx="2195" dy="1270" grid="1" gridSize="10" guides="1" tooltips="1" connect="1" arrows="1" fold="1" page="1" pageScale="1" pageWidth="827" pageHeight="1169" math="0" shadow="0">
      <root>
        <mxCell id="WIyWlLk6GJQsqaUBKTNV-0" />
        <mxCell id="WIyWlLk6GJQsqaUBKTNV-1" parent="WIyWlLk6GJQsqaUBKTNV-0" />
        <mxCell id="WIyWlLk6GJQsqaUBKTNV-2" value="" style="rounded=0;html=1;jettySize=auto;orthogonalLoop=1;fontSize=11;endArrow=block;endFill=0;endSize=8;strokeWidth=1;shadow=0;labelBackgroundColor=none;edgeStyle=orthogonalEdgeStyle;" parent="WIyWlLk6GJQsqaUBKTNV-1" source="WIyWlLk6GJQsqaUBKTNV-3" target="WIyWlLk6GJQsqaUBKTNV-6" edge="1">
          <mxGeometry relative="1" as="geometry" />
        </mxCell>
        <mxCell id="WIyWlLk6GJQsqaUBKTNV-3" value="Vstupní data" style="rounded=1;whiteSpace=wrap;html=1;fontSize=12;glass=0;strokeWidth=1;shadow=0;" parent="WIyWlLk6GJQsqaUBKTNV-1" vertex="1">
          <mxGeometry x="723.86" y="70" width="120" height="40" as="geometry" />
        </mxCell>
        <mxCell id="WIyWlLk6GJQsqaUBKTNV-4" value="Yes" style="rounded=0;html=1;jettySize=auto;orthogonalLoop=1;fontSize=11;endArrow=block;endFill=0;endSize=8;strokeWidth=1;shadow=0;labelBackgroundColor=none;edgeStyle=orthogonalEdgeStyle;" parent="WIyWlLk6GJQsqaUBKTNV-1" source="WIyWlLk6GJQsqaUBKTNV-6" edge="1">
          <mxGeometry y="20" relative="1" as="geometry">
            <mxPoint as="offset" />
            <mxPoint x="783.86" y="280" as="targetPoint" />
          </mxGeometry>
        </mxCell>
        <mxCell id="WIyWlLk6GJQsqaUBKTNV-5" value="No" style="edgeStyle=orthogonalEdgeStyle;rounded=0;html=1;jettySize=auto;orthogonalLoop=1;fontSize=11;endArrow=block;endFill=0;endSize=8;strokeWidth=1;shadow=0;labelBackgroundColor=none;" parent="WIyWlLk6GJQsqaUBKTNV-1" source="WIyWlLk6GJQsqaUBKTNV-6" edge="1">
          <mxGeometry y="10" relative="1" as="geometry">
            <mxPoint as="offset" />
            <mxPoint x="883.86" y="200" as="targetPoint" />
          </mxGeometry>
        </mxCell>
        <mxCell id="TPcVKSdojhPwblqIZHDH-45" style="edgeStyle=orthogonalEdgeStyle;rounded=0;comic=1;orthogonalLoop=1;jettySize=auto;html=1;entryX=0;entryY=0.5;entryDx=0;entryDy=0;" edge="1" parent="WIyWlLk6GJQsqaUBKTNV-1" source="TPcVKSdojhPwblqIZHDH-43" target="WIyWlLk6GJQsqaUBKTNV-3">
          <mxGeometry relative="1" as="geometry">
            <Array as="points">
              <mxPoint x="764" y="1140" />
              <mxPoint x="350" y="1140" />
              <mxPoint x="350" y="190" />
              <mxPoint x="704" y="190" />
              <mxPoint x="704" y="90" />
            </Array>
          </mxGeometry>
        </mxCell>
        <mxCell id="TPcVKSdojhPwblqIZHDH-43" value="" style="whiteSpace=wrap;html=1;aspect=fixed;" vertex="1" parent="WIyWlLk6GJQsqaUBKTNV-1">
          <mxGeometry x="379" y="270" width="770" height="770" as="geometry" />
        </mxCell>
        <mxCell id="WIyWlLk6GJQsqaUBKTNV-6" value="VD &amp;gt; 0" style="rhombus;whiteSpace=wrap;html=1;shadow=0;fontFamily=Helvetica;fontSize=12;align=center;strokeWidth=1;spacing=6;spacingTop=-4;" parent="WIyWlLk6GJQsqaUBKTNV-1" vertex="1">
          <mxGeometry x="733.86" y="160" width="100" height="80" as="geometry" />
        </mxCell>
        <mxCell id="TPcVKSdojhPwblqIZHDH-40" style="edgeStyle=orthogonalEdgeStyle;rounded=0;comic=1;orthogonalLoop=1;jettySize=auto;html=1;" edge="1" parent="WIyWlLk6GJQsqaUBKTNV-1" source="TPcVKSdojhPwblqIZHDH-39" target="TPcVKSdojhPwblqIZHDH-41">
          <mxGeometry relative="1" as="geometry">
            <mxPoint x="783.86" y="970" as="targetPoint" />
          </mxGeometry>
        </mxCell>
        <mxCell id="TPcVKSdojhPwblqIZHDH-39" value="" style="whiteSpace=wrap;html=1;aspect=fixed;" vertex="1" parent="WIyWlLk6GJQsqaUBKTNV-1">
          <mxGeometry x="523.86" y="370" width="520" height="520" as="geometry" />
        </mxCell>
        <mxCell id="TPcVKSdojhPwblqIZHDH-0" value="" style="curved=1;endArrow=classic;html=1;rounded=0;edgeStyle=orthogonalEdgeStyle;entryX=1;entryY=0.5;entryDx=0;entryDy=0;" edge="1" parent="WIyWlLk6GJQsqaUBKTNV-1" target="WIyWlLk6GJQsqaUBKTNV-3">
          <mxGeometry width="50" height="50" relative="1" as="geometry">
            <mxPoint x="883.86" y="200" as="sourcePoint" />
            <mxPoint x="977.86" y="120" as="targetPoint" />
            <Array as="points">
              <mxPoint x="977.86" y="120" />
              <mxPoint x="843.86" y="120" />
            </Array>
          </mxGeometry>
        </mxCell>
        <mxCell id="TPcVKSdojhPwblqIZHDH-2" value="Hesla; *cahr" style="swimlane;horizontal=0;startSize=30;" vertex="1" parent="WIyWlLk6GJQsqaUBKTNV-1">
          <mxGeometry x="1300" y="30" width="210" height="200" as="geometry">
            <mxRectangle x="1380" y="30" width="30" height="90" as="alternateBounds" />
          </mxGeometry>
        </mxCell>
        <mxCell id="TPcVKSdojhPwblqIZHDH-9" style="edgeStyle=orthogonalEdgeStyle;rounded=0;orthogonalLoop=1;jettySize=auto;html=1;" edge="1" parent="WIyWlLk6GJQsqaUBKTNV-1" source="TPcVKSdojhPwblqIZHDH-4" target="TPcVKSdojhPwblqIZHDH-6">
          <mxGeometry relative="1" as="geometry" />
        </mxCell>
        <mxCell id="TPcVKSdojhPwblqIZHDH-4" value="While(H[ j ] &amp;gt;0)" style="ellipse;whiteSpace=wrap;html=1;aspect=fixed;" vertex="1" parent="WIyWlLk6GJQsqaUBKTNV-1">
          <mxGeometry x="743.86" y="280" width="80" height="80" as="geometry" />
        </mxCell>
        <mxCell id="TPcVKSdojhPwblqIZHDH-22" style="edgeStyle=orthogonalEdgeStyle;rounded=0;orthogonalLoop=1;jettySize=auto;html=1;comic=1;" edge="1" parent="WIyWlLk6GJQsqaUBKTNV-1" source="TPcVKSdojhPwblqIZHDH-6" target="TPcVKSdojhPwblqIZHDH-19">
          <mxGeometry relative="1" as="geometry" />
        </mxCell>
        <mxCell id="TPcVKSdojhPwblqIZHDH-23" style="edgeStyle=orthogonalEdgeStyle;rounded=0;orthogonalLoop=1;jettySize=auto;html=1;orthogonal=1;" edge="1" parent="WIyWlLk6GJQsqaUBKTNV-1" source="TPcVKSdojhPwblqIZHDH-6" target="TPcVKSdojhPwblqIZHDH-27">
          <mxGeometry relative="1" as="geometry">
            <mxPoint x="703.86" y="610" as="targetPoint" />
          </mxGeometry>
        </mxCell>
        <mxCell id="TPcVKSdojhPwblqIZHDH-6" value="VD[ i ] == H[ j ]" style="rhombus;whiteSpace=wrap;html=1;" vertex="1" parent="WIyWlLk6GJQsqaUBKTNV-1">
          <mxGeometry x="733.86" y="510" width="100" height="80" as="geometry" />
        </mxCell>
        <mxCell id="TPcVKSdojhPwblqIZHDH-12" value="" style="endArrow=classic;html=1;rounded=0;edgeStyle=orthogonalEdgeStyle;entryX=1;entryY=0;entryDx=0;entryDy=0;" edge="1" parent="WIyWlLk6GJQsqaUBKTNV-1" source="TPcVKSdojhPwblqIZHDH-2" target="TPcVKSdojhPwblqIZHDH-6">
          <mxGeometry relative="1" as="geometry">
            <mxPoint x="873.86" y="360" as="sourcePoint" />
            <mxPoint x="1033.8600000000001" y="360" as="targetPoint" />
            <Array as="points">
              <mxPoint x="953.86" y="400" />
              <mxPoint x="953.86" y="530" />
            </Array>
          </mxGeometry>
        </mxCell>
        <mxCell id="TPcVKSdojhPwblqIZHDH-13" value="Data" style="edgeLabel;resizable=0;html=1;align=center;verticalAlign=middle;" connectable="0" vertex="1" parent="TPcVKSdojhPwblqIZHDH-12">
          <mxGeometry relative="1" as="geometry" />
        </mxCell>
        <mxCell id="TPcVKSdojhPwblqIZHDH-44" style="edgeStyle=orthogonalEdgeStyle;rounded=0;comic=1;orthogonalLoop=1;jettySize=auto;html=1;" edge="1" parent="WIyWlLk6GJQsqaUBKTNV-1" source="TPcVKSdojhPwblqIZHDH-19">
          <mxGeometry relative="1" as="geometry">
            <mxPoint x="1290" y="1110" as="targetPoint" />
          </mxGeometry>
        </mxCell>
        <mxCell id="TPcVKSdojhPwblqIZHDH-19" value="Break; Vstup povolen( )" style="rounded=1;whiteSpace=wrap;html=1;" vertex="1" parent="WIyWlLk6GJQsqaUBKTNV-1">
          <mxGeometry x="963.86" y="1080" width="120" height="60" as="geometry" />
        </mxCell>
        <mxCell id="TPcVKSdojhPwblqIZHDH-31" style="edgeStyle=orthogonalEdgeStyle;rounded=0;comic=1;orthogonalLoop=1;jettySize=auto;html=1;entryX=-0.017;entryY=0.604;entryDx=0;entryDy=0;exitX=0;exitY=0.5;exitDx=0;exitDy=0;entryPerimeter=0;" edge="1" parent="WIyWlLk6GJQsqaUBKTNV-1" source="TPcVKSdojhPwblqIZHDH-27" target="TPcVKSdojhPwblqIZHDH-35">
          <mxGeometry relative="1" as="geometry">
            <mxPoint x="563.86" y="250" as="targetPoint" />
            <Array as="points">
              <mxPoint x="563.86" y="800" />
              <mxPoint x="563.86" y="428" />
            </Array>
          </mxGeometry>
        </mxCell>
        <mxCell id="TPcVKSdojhPwblqIZHDH-27" value="No; Neexistující heso; j++;" style="rounded=1;whiteSpace=wrap;html=1;" vertex="1" parent="WIyWlLk6GJQsqaUBKTNV-1">
          <mxGeometry x="583.86" y="770" width="120" height="60" as="geometry" />
        </mxCell>
        <mxCell id="TPcVKSdojhPwblqIZHDH-35" value="While(VD[i] &amp;gt; 0)" style="ellipse;whiteSpace=wrap;html=1;aspect=fixed;" vertex="1" parent="WIyWlLk6GJQsqaUBKTNV-1">
          <mxGeometry x="743.86" y="380" width="80" height="80" as="geometry" />
        </mxCell>
        <mxCell id="TPcVKSdojhPwblqIZHDH-42" style="edgeStyle=orthogonalEdgeStyle;rounded=0;comic=1;orthogonalLoop=1;jettySize=auto;html=1;entryX=0.004;entryY=0.573;entryDx=0;entryDy=0;entryPerimeter=0;exitX=0;exitY=0.5;exitDx=0;exitDy=0;" edge="1" parent="WIyWlLk6GJQsqaUBKTNV-1" source="TPcVKSdojhPwblqIZHDH-41" target="TPcVKSdojhPwblqIZHDH-4">
          <mxGeometry relative="1" as="geometry">
            <Array as="points">
              <mxPoint x="463.86" y="970" />
              <mxPoint x="463.86" y="326" />
            </Array>
          </mxGeometry>
        </mxCell>
        <mxCell id="TPcVKSdojhPwblqIZHDH-41" value="j++;" style="rounded=1;whiteSpace=wrap;html=1;" vertex="1" parent="WIyWlLk6GJQsqaUBKTNV-1">
          <mxGeometry x="723.86" y="940" width="120" height="60" as="geometry" />
        </mxCell>
        <mxCell id="TPcVKSdojhPwblqIZHDH-46" value="*cha" style="text;html=1;align=center;verticalAlign=middle;resizable=0;points=[];autosize=1;strokeColor=none;fillColor=none;" vertex="1" parent="WIyWlLk6GJQsqaUBKTNV-1">
          <mxGeometry x="1350" y="60" width="40" height="20" as="geometry" />
        </mxCell>
      </root>
    </mxGraphModel>
  </diagram>
</mxfile>
